# xmcd
#
# Track frame offsets:
#	182
#	18965
#	40762
#	72772
#	93197
#	114345
#	129290
#	144267
#	154445
#	168160
#	194417
#	214717
#	228752
#
# Disc length: 3377 seconds
#
# Revision: 1
# Processed by: cddbd v1.5.2PL0 Copyright (c) Steve Scherf et al.
# Submitted via: audiograbber 1.83.01
#
DISCID=9e0d2f0d
DTITLE=Little Mack Simmons - Come Back To Me Baby - Chicago Blues Session, vol.
DTITLE=38
DYEAR=1994
DGENRE=Blues
TTITLE0=There's A Kissin' Goin On (Georgia Hinton Simmons, vocals)
TTITLE1=Key To The Highway
TTITLE2=Tell Me Baby
TTITLE3=I Got To Find My Baby
TTITLE4=Don't Start Me To Talkin'
TTITLE5=You Mistreated Me Baby
TTITLE6=Baby, You Got What It Takes (Georgia Hinton Simmons, vocals)
TTITLE7=Times Are Gettin' Tougher
TTITLE8=Come Back To Me Baby
TTITLE9=My Mamma Told Me
TTITLE10=I'm Hooked On Your Love
TTITLE11=I Got What It Takes
TTITLE12=I Wonder Why (Georgia Hinton Simmons, vocals)
EXTD=
EXTT0=
EXTT1=
EXTT2=
EXTT3=
EXTT4=
EXTT5=
EXTT6=
EXTT7=
EXTT8=
EXTT9=
EXTT10=
EXTT11=
EXTT12=
PLAYORDER=
